<svg width="13" height="13" viewBox="0 0 13 13" fill="none" xmlns="http://www.w3.org/2000/svg">
<g clip-path="url(#clip0_2317_1147)">
<path d="M12.0832 5.96691L12.0828 5.96655L7.57364 1.45739C7.46227 1.34602 7.31125 1.28325 7.15368 1.28306C6.99608 1.28286 6.84484 1.34529 6.73335 1.45679C6.62185 1.56828 6.55942 1.71952 6.55962 1.87712C6.55981 2.03469 6.62258 2.18571 6.73395 2.29708L10.3378 5.90088L0.959151 5.88946C0.881096 5.8869 0.803273 5.89976 0.730148 5.92734C0.655182 5.95562 0.58672 5.99878 0.528894 6.05426C0.471068 6.10973 0.425095 6.17634 0.393731 6.25007C0.362368 6.3238 0.34627 6.4031 0.34637 6.4832C0.34647 6.5633 0.362763 6.64255 0.394235 6.71618C0.425708 6.78982 0.471718 6.85634 0.529493 6.91178C0.587267 6.96721 0.655637 7.01043 0.730513 7.03883C0.803556 7.06654 0.881334 7.07959 0.959399 7.07723L10.3403 7.08888L6.74481 10.6844C6.63332 10.7959 6.57089 10.9471 6.57108 11.1047C6.57128 11.2623 6.63404 11.4133 6.74541 11.5247C6.85678 11.6361 7.00781 11.6988 7.16538 11.699C7.32298 11.6992 7.47422 11.6368 7.58571 11.5253L12.0834 7.02758L12.0837 7.02734C12.2241 6.88657 12.3027 6.69585 12.3025 6.49707C12.3023 6.29832 12.2234 6.10773 12.0832 5.96691Z" fill="#1A1A1A" stroke="#1A1A1A" stroke-width="0.5"/>
</g>
<defs>
<clipPath id="clip0_2317_1147">
<rect width="9" height="9" fill="white" transform="translate(6.36426 0.135742) rotate(45)"/>
</clipPath>
</defs>
</svg>
