<svg width="13" height="13" viewBox="0 0 13 13" fill="none" xmlns="http://www.w3.org/2000/svg">
<g clip-path="url(#clip0_2417_2)">
<path d="M6.10266 0.781095L6.10229 0.781458L1.59313 5.29062C1.48176 5.40199 1.419 5.55301 1.4188 5.71058C1.4186 5.86818 1.48104 6.01942 1.59253 6.13091C1.70402 6.2424 1.85526 6.30484 2.01286 6.30464C2.17043 6.30444 2.32145 6.24168 2.43282 6.13031L6.03663 2.5265L6.0252 11.9051C6.02265 11.9832 6.0355 12.061 6.06308 12.1341C6.09136 12.2091 6.13453 12.2775 6.19 12.3354C6.24547 12.3932 6.31208 12.4392 6.38581 12.4705C6.45954 12.5019 6.53885 12.518 6.61895 12.5179C6.69905 12.5178 6.77829 12.5015 6.85192 12.47C6.92556 12.4386 6.99208 12.3925 7.04752 12.3348C7.10295 12.277 7.14618 12.2086 7.17458 12.1337C7.20228 12.0607 7.21533 11.9829 7.21297 11.9049L7.22462 2.52392L10.8202 6.11945C10.9316 6.23094 11.0829 6.29337 11.2405 6.29318C11.3981 6.29298 11.5491 6.23021 11.6604 6.11884C11.7718 6.00748 11.8346 5.85645 11.8348 5.69888C11.835 5.54128 11.7725 5.39004 11.6611 5.27855L7.16332 0.780822L7.16308 0.78058C7.02232 0.640201 6.83159 0.56157 6.63282 0.561749C6.43407 0.561927 6.24347 0.640861 6.10266 0.781095Z" fill="#1A1A1A" stroke="#1A1A1A" stroke-width="0.5"/>
</g>
<defs>
<clipPath id="clip0_2417_2">
<rect width="9" height="9" fill="white" transform="translate(0.271484 6.5) rotate(-45)"/>
</clipPath>
</defs>
</svg>
