<svg width="13" height="13" viewBox="0 0 13 13" fill="none" xmlns="http://www.w3.org/2000/svg">
<g clip-path="url(#clip0_2303_398)">
<path d="M7.16919 12.2185L7.16883 12.2189C7.02802 12.3591 6.83742 12.4381 6.63867 12.4383C6.43989 12.4384 6.24917 12.3598 6.1084 12.2194L6.10816 12.2192L1.61043 7.72145C1.49894 7.60996 1.43651 7.45872 1.4367 7.30112L1.6867 7.30143L1.4367 7.30112C1.4369 7.14355 1.49967 6.99252 1.61104 6.88116C1.72241 6.76979 1.87343 6.70702 2.031 6.70682C2.1886 6.70663 2.33984 6.76906 2.45133 6.88055L6.04686 10.4761L6.05851 1.09514C6.05615 1.01707 6.0692 0.939294 6.09691 0.866254C6.12531 0.791381 6.16853 0.723009 6.22396 0.665236C6.2794 0.607458 6.34593 0.561449 6.41956 0.529977C6.49319 0.498506 6.57243 0.482211 6.65254 0.482111C6.65254 0.482111 6.65254 0.482112 6.65254 0.482112L6.65285 0.731939L7.16919 12.2185ZM7.16919 12.2185L11.6784 7.70938M7.16919 12.2185L11.6784 7.70938M11.6784 7.70938C11.7897 7.59801 11.8525 7.44699 11.8527 7.28942M11.6784 7.70938L11.8527 7.28942M11.8527 7.28942C11.8529 7.13182 11.7904 6.98058 11.679 6.86909M11.8527 7.28942L11.679 6.86909M11.679 6.86909C11.5675 6.7576 11.4162 6.69516 11.2586 6.69536M11.679 6.86909L11.2586 6.69536M11.2586 6.69536C11.1011 6.69556 10.95 6.75832 10.8387 6.86969M11.2586 6.69536L10.8387 6.86969M10.8387 6.86969L7.23486 10.4735M10.8387 6.86969L7.23486 10.4735M7.23486 10.4735L7.24628 1.0949L7.23486 10.4735Z" fill="#1A1A1A" stroke="#1A1A1A" stroke-width="0.5"/>
</g>
<defs>
<clipPath id="clip0_2303_398">
<rect width="9" height="9" fill="white" transform="translate(13 6.5) rotate(135)"/>
</clipPath>
</defs>
</svg>
