<svg width="125" height="15" viewBox="0 0 125 15" fill="none" xmlns="http://www.w3.org/2000/svg">
<path d="M5.57227 14.2021C4.55273 14.2021 3.66797 14.0439 2.91797 13.7275C2.16797 13.4111 1.58203 12.9512 1.16016 12.3477C0.738281 11.7383 0.509766 11 0.474609 10.1328H2.8125C2.84766 10.5898 2.98828 10.9707 3.23438 11.2754C3.48047 11.5742 3.80273 11.7998 4.20117 11.9521C4.60547 12.1045 5.05371 12.1807 5.5459 12.1807C6.06152 12.1807 6.51562 12.1016 6.9082 11.9434C7.30078 11.7852 7.6084 11.5654 7.83105 11.2842C8.05371 11.0029 8.16504 10.6748 8.16504 10.2998C8.16504 9.95996 8.06543 9.68164 7.86621 9.46484C7.66699 9.24219 7.3916 9.05469 7.04004 8.90234C6.68848 8.75 6.27539 8.61523 5.80078 8.49805L4.31543 8.11133C3.2373 7.83594 2.3877 7.41699 1.7666 6.85449C1.14551 6.28613 0.834961 5.53027 0.834961 4.58691C0.834961 3.81348 1.04297 3.13965 1.45898 2.56543C1.875 1.98535 2.44336 1.53418 3.16406 1.21191C3.89062 0.889648 4.71094 0.728516 5.625 0.728516C6.55664 0.728516 7.37402 0.889648 8.07715 1.21191C8.78027 1.53418 9.33105 1.97949 9.72949 2.54785C10.1279 3.11621 10.3359 3.76953 10.3535 4.50781H8.05957C8.00098 3.94531 7.75195 3.51172 7.3125 3.20703C6.87891 2.89648 6.30762 2.74121 5.59863 2.74121C5.10645 2.74121 4.68164 2.81445 4.32422 2.96094C3.97266 3.10742 3.70312 3.30957 3.51562 3.56738C3.32812 3.8252 3.23438 4.11816 3.23438 4.44629C3.23438 4.80957 3.34277 5.1084 3.55957 5.34277C3.78223 5.57129 4.06348 5.75586 4.40332 5.89648C4.74902 6.03711 5.10059 6.1543 5.45801 6.24805L6.67969 6.55566C7.17188 6.67285 7.64648 6.83105 8.10352 7.03027C8.56055 7.22363 8.9707 7.46973 9.33398 7.76855C9.70312 8.06152 9.99316 8.41895 10.2041 8.84082C10.4209 9.2627 10.5293 9.75781 10.5293 10.3262C10.5293 11.0879 10.333 11.7617 9.94043 12.3477C9.54785 12.9277 8.98242 13.3818 8.24414 13.71C7.50586 14.0381 6.61523 14.2021 5.57227 14.2021ZM11.7664 14V4.17383H14.078V14H11.7664ZM12.9266 2.79395C12.5575 2.79395 12.2411 2.6709 11.9774 2.4248C11.7137 2.17871 11.5819 1.88281 11.5819 1.53711C11.5819 1.18555 11.7137 0.886719 11.9774 0.640625C12.2411 0.394531 12.5575 0.271484 12.9266 0.271484C13.2899 0.271484 13.6034 0.394531 13.867 0.640625C14.1307 0.886719 14.2625 1.18262 14.2625 1.52832C14.2625 1.87988 14.1307 2.17871 13.867 2.4248C13.6034 2.6709 13.2899 2.79395 12.9266 2.79395ZM18.0134 0.904297V14H15.7018V0.904297H18.0134ZM23.9878 14.1934C23.0034 14.1934 22.1538 13.9883 21.439 13.5781C20.7241 13.1621 20.1734 12.5762 19.7866 11.8203C19.4058 11.0645 19.2154 10.1738 19.2154 9.14844C19.2154 8.13477 19.4058 7.24707 19.7866 6.48535C20.1675 5.71777 20.7036 5.12012 21.395 4.69238C22.0864 4.26465 22.9009 4.05078 23.8384 4.05078C24.4419 4.05078 25.0132 4.14746 25.5523 4.34082C26.0972 4.53418 26.5777 4.83301 26.9937 5.2373C27.4155 5.6416 27.7466 6.15723 27.9868 6.78418C28.2271 7.40527 28.3472 8.14648 28.3472 9.00781V9.72852H20.2964V8.17285H27.1958L26.1148 8.62988C26.1148 8.07324 26.0298 7.58984 25.8599 7.17969C25.69 6.76367 25.438 6.43848 25.104 6.2041C24.77 5.96973 24.354 5.85254 23.856 5.85254C23.3579 5.85254 22.9331 5.96973 22.5816 6.2041C22.23 6.43848 21.9634 6.75488 21.7818 7.15332C21.6001 7.5459 21.5093 7.98535 21.5093 8.47168V9.55273C21.5093 10.1504 21.6118 10.6631 21.8169 11.0908C22.0279 11.5127 22.3208 11.835 22.6958 12.0576C23.0767 12.2803 23.5191 12.3916 24.023 12.3916C24.3511 12.3916 24.6499 12.3447 24.9195 12.251C25.1948 12.1572 25.4292 12.0166 25.6226 11.8291C25.8218 11.6357 25.9741 11.3984 26.0796 11.1172L28.2417 11.3721C28.1011 11.9404 27.8404 12.4385 27.4595 12.8662C27.0845 13.2881 26.6011 13.6162 26.0093 13.8506C25.4234 14.0791 24.7495 14.1934 23.9878 14.1934ZM31.8255 8.25195V14H29.514V4.17383H31.7816V5.85254H31.8959C32.1185 5.30176 32.4671 4.86523 32.9418 4.54297C33.4222 4.21484 34.0316 4.05078 34.7699 4.05078C35.4496 4.05078 36.0414 4.19434 36.5453 4.48145C37.0492 4.76855 37.4388 5.19043 37.7142 5.74707C37.9955 6.29785 38.1361 6.96582 38.1361 7.75098V14H35.8246V8.11133C35.8246 7.45508 35.6546 6.94238 35.3148 6.57324C34.975 6.19824 34.5062 6.01074 33.9086 6.01074C33.5043 6.01074 33.1439 6.09863 32.8275 6.27441C32.517 6.4502 32.2709 6.70508 32.0892 7.03906C31.9134 7.36719 31.8255 7.77148 31.8255 8.25195ZM44.0402 14.1934C43.0617 14.1934 42.2209 13.9795 41.5178 13.5518C40.8146 13.1182 40.2756 12.5205 39.9006 11.7588C39.5256 10.9971 39.3381 10.1211 39.3381 9.13086C39.3381 8.12891 39.5285 7.24707 39.9094 6.48535C40.2902 5.72363 40.8322 5.12891 41.5354 4.70117C42.2385 4.26758 43.0676 4.05078 44.0227 4.05078C44.8254 4.05078 45.5344 4.19727 46.1496 4.49023C46.7648 4.7832 47.2541 5.19629 47.6174 5.72949C47.9865 6.25684 48.1975 6.875 48.2502 7.58398H46.0354C45.9768 7.26758 45.8625 6.9834 45.6926 6.73145C45.5227 6.47949 45.3 6.28027 45.0246 6.13379C44.7551 5.9873 44.4328 5.91406 44.0578 5.91406C43.5832 5.91406 43.1672 6.04297 42.8098 6.30078C42.4582 6.55273 42.1828 6.91602 41.9836 7.39062C41.7844 7.86523 41.6848 8.43359 41.6848 9.0957C41.6848 9.76367 41.7814 10.3408 41.9748 10.8271C42.1682 11.3076 42.4436 11.6797 42.801 11.9434C43.1584 12.2012 43.5773 12.3301 44.0578 12.3301C44.5676 12.3301 44.9982 12.1807 45.3498 11.8818C45.7072 11.583 45.9357 11.1699 46.0354 10.6426H48.2502C48.1975 11.3398 47.9924 11.9551 47.635 12.4883C47.2775 13.0215 46.7941 13.4404 46.1848 13.7451C45.5754 14.0439 44.8605 14.1934 44.0402 14.1934ZM53.7588 14.1934C52.7745 14.1934 51.9248 13.9883 51.21 13.5781C50.4952 13.1621 49.9444 12.5762 49.5577 11.8203C49.1768 11.0645 48.9864 10.1738 48.9864 9.14844C48.9864 8.13477 49.1768 7.24707 49.5577 6.48535C49.9385 5.71777 50.4746 5.12012 51.1661 4.69238C51.8575 4.26465 52.6719 4.05078 53.6094 4.05078C54.2129 4.05078 54.7842 4.14746 55.3233 4.34082C55.8682 4.53418 56.3487 4.83301 56.7647 5.2373C57.1866 5.6416 57.5176 6.15723 57.7579 6.78418C57.9981 7.40527 58.1182 8.14648 58.1182 9.00781V9.72852H50.0674V8.17285H56.9668L55.8858 8.62988C55.8858 8.07324 55.8008 7.58984 55.6309 7.17969C55.461 6.76367 55.209 6.43848 54.875 6.2041C54.5411 5.96973 54.125 5.85254 53.627 5.85254C53.1289 5.85254 52.7041 5.96973 52.3526 6.2041C52.001 6.43848 51.7344 6.75488 51.5528 7.15332C51.3711 7.5459 51.2803 7.98535 51.2803 8.47168V9.55273C51.2803 10.1504 51.3829 10.6631 51.5879 11.0908C51.7989 11.5127 52.0918 11.835 52.4668 12.0576C52.8477 12.2803 53.2901 12.3916 53.794 12.3916C54.1221 12.3916 54.4209 12.3447 54.6905 12.251C54.9659 12.1572 55.2002 12.0166 55.3936 11.8291C55.5928 11.6357 55.7452 11.3984 55.8506 11.1172L58.0127 11.3721C57.8721 11.9404 57.6114 12.4385 57.2305 12.8662C56.8555 13.2881 56.3721 13.6162 55.7803 13.8506C55.1944 14.0791 54.5205 14.1934 53.7588 14.1934ZM67.7116 14.2021C66.6921 14.2021 65.8073 14.0439 65.0573 13.7275C64.3073 13.4111 63.7214 12.9512 63.2995 12.3477C62.8777 11.7383 62.6491 11 62.614 10.1328H64.9519C64.987 10.5898 65.1277 10.9707 65.3737 11.2754C65.6198 11.5742 65.9421 11.7998 66.3405 11.9521C66.7448 12.1045 67.1931 12.1807 67.6853 12.1807C68.2009 12.1807 68.655 12.1016 69.0476 11.9434C69.4402 11.7852 69.7478 11.5654 69.9704 11.2842C70.1931 11.0029 70.3044 10.6748 70.3044 10.2998C70.3044 9.95996 70.2048 9.68164 70.0056 9.46484C69.8064 9.24219 69.531 9.05469 69.1794 8.90234C68.8279 8.75 68.4148 8.61523 67.9402 8.49805L66.4548 8.11133C65.3767 7.83594 64.5271 7.41699 63.906 6.85449C63.2849 6.28613 62.9743 5.53027 62.9743 4.58691C62.9743 3.81348 63.1823 3.13965 63.5984 2.56543C64.0144 1.98535 64.5827 1.53418 65.3034 1.21191C66.03 0.889648 66.8503 0.728516 67.7644 0.728516C68.696 0.728516 69.5134 0.889648 70.2165 1.21191C70.9196 1.53418 71.4704 1.97949 71.8689 2.54785C72.2673 3.11621 72.4753 3.76953 72.4929 4.50781H70.1989C70.1404 3.94531 69.8913 3.51172 69.4519 3.20703C69.0183 2.89648 68.447 2.74121 67.738 2.74121C67.2458 2.74121 66.821 2.81445 66.4636 2.96094C66.112 3.10742 65.8425 3.30957 65.655 3.56738C65.4675 3.8252 65.3737 4.11816 65.3737 4.44629C65.3737 4.80957 65.4821 5.1084 65.6989 5.34277C65.9216 5.57129 66.2029 5.75586 66.5427 5.89648C66.8884 6.03711 67.24 6.1543 67.5974 6.24805L68.8191 6.55566C69.3112 6.67285 69.7859 6.83105 70.2429 7.03027C70.6999 7.22363 71.1101 7.46973 71.4734 7.76855C71.8425 8.06152 72.1325 8.41895 72.3435 8.84082C72.5603 9.2627 72.6687 9.75781 72.6687 10.3262C72.6687 11.0879 72.4724 11.7617 72.0798 12.3477C71.6872 12.9277 71.1218 13.3818 70.3835 13.71C69.6452 14.0381 68.7546 14.2021 67.7116 14.2021ZM78.8013 4.17383V5.9668H73.1675V4.17383H78.8013ZM74.5474 1.83594H76.8589V11.0469C76.8589 11.4336 76.9439 11.7207 77.1138 11.9082C77.2838 12.0898 77.5533 12.1807 77.9224 12.1807C78.022 12.1807 78.1334 12.1719 78.2564 12.1543C78.3795 12.1367 78.4908 12.1162 78.5904 12.0928L78.9859 13.9033C78.7398 13.9795 78.4908 14.0352 78.2388 14.0703C77.9869 14.1113 77.7349 14.1318 77.483 14.1318C76.5689 14.1318 75.8511 13.8916 75.3297 13.4111C74.8082 12.9248 74.5474 12.2627 74.5474 11.4248V1.83594ZM86.2436 9.87793V4.17383H88.5551V14H86.3139V12.251H86.2084C85.9857 12.8018 85.6225 13.2529 85.1186 13.6045C84.6146 13.9561 83.9936 14.1289 83.2553 14.123C82.6107 14.123 82.0424 13.9824 81.5502 13.7012C81.0639 13.4141 80.6801 12.9951 80.3988 12.4443C80.1234 11.8877 79.9857 11.2168 79.9857 10.4316V4.17383H82.2973V10.0801C82.2973 10.6953 82.4672 11.1875 82.807 11.5566C83.1527 11.9258 83.6039 12.1074 84.1605 12.1016C84.5004 12.1016 84.8285 12.0195 85.1449 11.8555C85.4672 11.6914 85.7309 11.4453 85.9359 11.1172C86.141 10.7891 86.2436 10.376 86.2436 9.87793ZM93.8 14.1758C93.0325 14.1758 92.3411 13.9795 91.7258 13.5869C91.1164 13.1885 90.636 12.6113 90.2844 11.8555C89.9329 11.0996 89.7571 10.1826 89.7571 9.10449C89.7571 8.00879 89.9358 7.08594 90.2932 6.33594C90.6565 5.58594 91.1428 5.01758 91.7522 4.63086C92.3616 4.24414 93.0442 4.05078 93.8 4.05078C94.3801 4.05078 94.8547 4.14746 95.2239 4.34082C95.593 4.53418 95.886 4.76855 96.1028 5.04395C96.3254 5.31348 96.4954 5.56543 96.6125 5.7998H96.7092V0.904297H99.012V14H96.7532V12.4443H96.6125C96.4895 12.6846 96.3166 12.9395 96.094 13.209C95.8713 13.4727 95.5754 13.7012 95.2063 13.8945C94.8372 14.082 94.3684 14.1758 93.8 14.1758ZM94.4416 12.2773C94.9338 12.2773 95.3498 12.1455 95.6897 11.8818C96.0354 11.6123 96.2991 11.2402 96.4807 10.7656C96.6623 10.2852 96.7532 9.72852 96.7532 9.0957C96.7532 8.45703 96.6623 7.90332 96.4807 7.43457C96.3049 6.95996 96.0442 6.59375 95.6985 6.33594C95.3586 6.07812 94.9397 5.94922 94.4416 5.94922C93.9319 5.94922 93.5041 6.08398 93.1584 6.35352C92.8127 6.62305 92.552 6.99512 92.3762 7.46973C92.2063 7.94434 92.1213 8.48633 92.1213 9.0957C92.1213 9.70508 92.2092 10.25 92.385 10.7305C92.5608 11.2109 92.8186 11.5889 93.1584 11.8643C93.5041 12.1396 93.9319 12.2773 94.4416 12.2773ZM100.636 14V4.17383H102.947V14H100.636ZM101.796 2.79395C101.427 2.79395 101.11 2.6709 100.847 2.4248C100.583 2.17871 100.451 1.88281 100.451 1.53711C100.451 1.18555 100.583 0.886719 100.847 0.640625C101.11 0.394531 101.427 0.271484 101.796 0.271484C102.159 0.271484 102.473 0.394531 102.736 0.640625C103 0.886719 103.132 1.18262 103.132 1.52832C103.132 1.87988 103 2.17871 102.736 2.4248C102.473 2.6709 102.159 2.79395 101.796 2.79395ZM108.851 14.1934C107.891 14.1934 107.059 13.9824 106.355 13.5605C105.652 13.1387 105.107 12.5469 104.721 11.7852C104.34 11.0234 104.149 10.1387 104.149 9.13086C104.149 8.11719 104.34 7.22949 104.721 6.46777C105.107 5.7002 105.652 5.10547 106.355 4.68359C107.059 4.26172 107.891 4.05078 108.851 4.05078C109.812 4.05078 110.644 4.26172 111.348 4.68359C112.051 5.10547 112.596 5.7002 112.982 6.46777C113.369 7.22949 113.562 8.11719 113.562 9.13086C113.562 10.1387 113.369 11.0234 112.982 11.7852C112.596 12.5469 112.051 13.1387 111.348 13.5605C110.644 13.9824 109.812 14.1934 108.851 14.1934ZM108.851 12.3301C109.385 12.3301 109.824 12.1895 110.17 11.9082C110.516 11.6211 110.773 11.2344 110.943 10.748C111.119 10.2617 111.207 9.72266 111.207 9.13086C111.207 8.52734 111.119 7.98242 110.943 7.49609C110.773 7.00977 110.516 6.62598 110.17 6.34473C109.824 6.05762 109.385 5.91406 108.851 5.91406C108.33 5.91406 107.893 6.05762 107.542 6.34473C107.19 6.62598 106.927 7.00977 106.751 7.49609C106.581 7.98242 106.496 8.52734 106.496 9.13086C106.496 9.72266 106.581 10.2617 106.751 10.748C106.927 11.2344 107.19 11.6211 107.542 11.9082C107.893 12.1895 108.33 12.3301 108.851 12.3301ZM117.507 8.14648V3.43555H119.836C120.099 3.42969 120.351 3.48535 120.592 3.60254C120.838 3.71973 121.037 3.89258 121.189 4.12109C121.342 4.34961 121.418 4.63086 121.418 4.96484C121.418 5.30469 121.339 5.59473 121.18 5.83496C121.022 6.0752 120.817 6.25684 120.565 6.37988C120.319 6.49707 120.058 6.55566 119.783 6.55566H118.148V5.70312H119.502C119.666 5.70898 119.818 5.65039 119.959 5.52734C120.105 5.4043 120.178 5.2168 120.178 4.96484C120.178 4.71289 120.105 4.53711 119.959 4.4375C119.818 4.33789 119.669 4.28516 119.511 4.2793H118.667V8.14648H117.507ZM120.469 5.94922L121.585 8.14648H120.302L119.247 5.94922H120.469ZM119.335 10.959C118.632 10.959 117.969 10.8271 117.348 10.5635C116.733 10.2939 116.191 9.9248 115.722 9.45605C115.254 8.9873 114.887 8.44531 114.624 7.83008C114.36 7.20898 114.228 6.54688 114.228 5.84375C114.228 5.14062 114.36 4.48145 114.624 3.86621C114.887 3.24512 115.254 2.7002 115.722 2.23145C116.191 1.7627 116.733 1.39648 117.348 1.13281C117.969 0.863281 118.632 0.728516 119.335 0.728516C120.044 0.728516 120.706 0.863281 121.321 1.13281C121.942 1.39648 122.487 1.7627 122.956 2.23145C123.425 2.7002 123.791 3.24512 124.054 3.86621C124.318 4.48145 124.45 5.14062 124.45 5.84375C124.45 6.54688 124.318 7.20898 124.054 7.83008C123.791 8.44531 123.425 8.9873 122.956 9.45605C122.487 9.9248 121.942 10.2939 121.321 10.5635C120.706 10.8271 120.044 10.959 119.335 10.959ZM119.335 9.64062C120.038 9.64062 120.677 9.4707 121.251 9.13086C121.831 8.79102 122.291 8.33398 122.631 7.75977C122.976 7.18555 123.146 6.54688 123.14 5.84375C123.146 5.14062 122.976 4.50195 122.631 3.92773C122.291 3.35352 121.831 2.89648 121.251 2.55664C120.677 2.21094 120.038 2.04102 119.335 2.04688C118.637 2.04102 117.999 2.21094 117.419 2.55664C116.844 2.89648 116.385 3.35352 116.039 3.92773C115.699 4.50195 115.529 5.14062 115.529 5.84375C115.529 6.54102 115.699 7.17969 116.039 7.75977C116.385 8.33398 116.844 8.79102 117.419 9.13086C117.999 9.4707 118.637 9.64062 119.335 9.64062Z" fill="#1A1A1A"/>
</svg>
